<svg xmlns="http://www.w3.org/2000/svg" width="98" height="89" viewBox="0 0 98 89" fill="none">
<path d="M48.9997 74.7602C30.5757 74.7602 15.6797 61.2322 15.6797 44.5002C15.6797 27.7682 30.5757 14.2402 48.9997 14.2402C67.4237 14.2402 82.3197 27.7682 82.3197 44.5002C82.3197 61.2322 67.4237 74.7602 48.9997 74.7602ZM48.9997 17.8002C32.7317 17.8002 19.5997 29.7262 19.5997 44.5002C19.5997 59.2742 32.7317 71.2002 48.9997 71.2002C65.2677 71.2002 78.3997 59.2742 78.3997 44.5002C78.3997 29.7262 65.2677 17.8002 48.9997 17.8002Z" fill="black"/>
<path d="M65.2683 47.5256L49.0003 32.7516L32.7323 47.5256L29.9883 45.0336L49.0003 27.7676L68.0123 45.0336L65.2683 47.5256Z" fill="black"/>
<path d="M47.0391 30.2598H50.9591V60.5198H47.0391V30.2598Z" fill="black"/>
</svg>