<svg width="92" height="98" viewBox="0 0 92 98" fill="none" xmlns="http://www.w3.org/2000/svg">
<g id="Group 1000001980">
<g id="Vector 1">
<path d="M90.5998 21.6334L47.9419 29.3082V95.7047L60.7928 84.9956L81.3186 83.9247L90.5998 21.6334Z" fill="white"/>
<path d="M82.568 2L47.9419 25.0246L82.568 11.4597V2Z" fill="white"/>
<path d="M87.3871 12.7091L49.7267 27.1664L87.3871 19.4915V12.7091Z" fill="white"/>
<path d="M90.5998 21.6334L47.9419 29.3082V95.7047L60.7928 84.9956L81.3186 83.9247L90.5998 21.6334Z" stroke="white" stroke-width="1.6"/>
<path d="M82.568 2L47.9419 25.0246L82.568 11.4597V2Z" stroke="white" stroke-width="1.6"/>
<path d="M87.3871 12.7091L49.7267 27.1664L87.3871 19.4915V12.7091Z" stroke="white" stroke-width="1.6"/>
</g>
<g id="Vector 3">
<path d="M1.00013 21.6334L42.4087 29.3082V85.888L29.9341 84.9956L10.0095 83.9247L1.00013 21.6334Z" fill="white"/>
<path d="M8.79672 2L42.4087 25.0246L8.79672 11.4597V2Z" fill="white"/>
<path d="M4.11877 12.7091L40.6761 27.1664L4.11877 19.4915V12.7091Z" fill="white"/>
<path d="M1.00013 21.6334L42.4087 29.3082V85.888L29.9341 84.9956L10.0095 83.9247L1.00013 21.6334Z" stroke="white" stroke-width="1.6"/>
<path d="M8.79672 2L42.4087 25.0246L8.79672 11.4597V2Z" stroke="white" stroke-width="1.6"/>
<path d="M4.11877 12.7091L40.6761 27.1664L4.11877 19.4915V12.7091Z" stroke="white" stroke-width="1.6"/>
</g>
<ellipse id="Ellipse 2615" cx="31.4315" cy="46.175" rx="4.72986" ry="9.37047" fill="#508CAE"/>
<ellipse id="Ellipse 2616" cx="60.1683" cy="46.175" rx="4.72986" ry="9.37047" fill="#508CAE"/>
<path id="Vector 2" d="M25.6577 64.0443C23.1589 62.3487 19.4112 56.9051 16.8228 59.4039C14.2344 61.9026 18.3405 65.9187 20.3924 67.2572C22.4443 68.5957 29.9414 74.0395 43.1493 75.1996C56.3572 76.3598 60.1054 73.504 64.032 71.8084C67.9587 70.1128 78.0431 63.5981 75.2766 59.9392C72.5101 56.2802 66.7988 64.1337 59.927 67.2572C53.0552 70.3807 48.2359 70.7374 40.472 69.3989C32.708 68.0603 28.1565 65.7399 25.6577 64.0443Z" fill="#508CAE" stroke="#4DA4A3" stroke-width="1.6"/>
</g>
</svg>
