<svg xmlns="http://www.w3.org/2000/svg" width="51" height="51" viewBox="0 0 51 51" fill="none">
  <path d="M4.83594 25.5649C4.83698 20.9974 6.33903 16.5568 9.11091 12.9266C11.8828 9.2963 15.7709 6.67757 20.1768 5.47339C24.5827 4.26922 29.2622 4.54634 33.4952 6.2621C37.7282 7.97786 41.2801 11.0372 43.6041 14.9692C45.9281 18.9012 46.8956 23.4881 46.3576 28.0238C45.8195 32.5595 43.8058 36.7927 40.6264 40.0719C37.4469 43.3511 33.2779 45.4945 28.761 46.1723C24.244 46.8501 19.6295 46.0248 15.6276 43.8232L7.52761 46.2899C7.16632 46.4 6.78191 46.4097 6.41549 46.3182C6.04908 46.2266 5.71445 46.0372 5.44739 45.7701C5.18033 45.5031 4.99089 45.1684 4.89933 44.802C4.80778 44.4356 4.81755 44.0512 4.92761 43.6899L7.39427 35.5774C5.71412 32.5077 4.83428 29.0643 4.83594 25.5649ZM17.3359 23.4816C17.3359 24.0341 17.5554 24.564 17.9461 24.9547C18.3368 25.3454 18.8667 25.5649 19.4193 25.5649H31.9193C32.4718 25.5649 33.0017 25.3454 33.3924 24.9547C33.7831 24.564 34.0026 24.0341 34.0026 23.4816C34.0026 22.929 33.7831 22.3991 33.3924 22.0084C33.0017 21.6177 32.4718 21.3982 31.9193 21.3982H19.4193C18.8667 21.3982 18.3368 21.6177 17.9461 22.0084C17.5554 22.3991 17.3359 22.929 17.3359 23.4816ZM19.4193 29.7316C18.8667 29.7316 18.3368 29.9511 17.9461 30.3418C17.5554 30.7325 17.3359 31.2624 17.3359 31.8149C17.3359 32.3674 17.5554 32.8973 17.9461 33.288C18.3368 33.6787 18.8667 33.8982 19.4193 33.8982H27.7526C28.3051 33.8982 28.835 33.6787 29.2257 33.288C29.6164 32.8973 29.8359 32.3674 29.8359 31.8149C29.8359 31.2624 29.6164 30.7325 29.2257 30.3418C28.835 29.9511 28.3051 29.7316 27.7526 29.7316H19.4193Z" fill="#508CAE"/>
</svg>