<?xml version="1.0" standalone="no"?>
<!DOCTYPE svg PUBLIC "-//W3C//DTD SVG 20010904//EN"
 "http://www.w3.org/TR/2001/REC-SVG-20010904/DTD/svg10.dtd">
<svg version="1.0" xmlns="http://www.w3.org/2000/svg"
 width="512.000000pt" height="512.000000pt" viewBox="0 0 512.000000 512.000000"
 preserveAspectRatio="xMidYMid meet">

<g transform="translate(0.000000,512.000000) scale(0.100000,-0.100000)"
fill="#000000" stroke="none">
<path d="M2285 4675 c-484 -69 -891 -270 -1231 -609 -351 -350 -559 -786 -614
-1285 -18 -156 -8 -441 20 -591 82 -445 278 -820 594 -1136 240 -240 514 -411
828 -516 124 -41 333 -90 343 -80 3 3 5 338 5 744 l0 738 -270 0 -270 0 0 310
0 310 269 0 269 0 4 333 c5 377 11 414 91 577 58 119 176 238 297 298 142 71
215 85 430 86 160 1 310 -10 428 -31 l32 -5 0 -264 0 -264 -178 0 c-203 0
-253 -10 -323 -64 -54 -41 -94 -111 -108 -190 -6 -33 -11 -153 -11 -268 l0
-208 295 0 c261 0 295 -2 295 -16 0 -8 -20 -146 -45 -306 -25 -160 -45 -293
-45 -295 0 -1 -112 -3 -250 -3 l-250 0 0 -738 c0 -406 2 -741 5 -744 11 -10
219 39 349 83 775 257 1336 953 1436 1779 14 121 12 367 -4 500 -116 924 -809
1662 -1723 1836 -116 22 -173 27 -353 30 -150 2 -245 -1 -315 -11z"/>
</g>
</svg>
