<svg width="25" height="25" viewBox="0 0 25 25" fill="none" xmlns="http://www.w3.org/2000/svg">
<g id="&#240;&#159;&#166;&#134; icon &#34;google&#34;">
<path id="Vector" d="M24.7567 10.0518H23.7498V9.99992H12.4999V14.9999H19.5642C18.5336 17.9105 15.7642 19.9998 12.4999 19.9998C8.35806 19.9998 4.99996 16.6417 4.99996 12.4999C4.99996 8.35806 8.35806 4.99996 12.4999 4.99996C14.4118 4.99996 16.1511 5.7212 17.4755 6.89932L21.0111 3.36372C18.7786 1.28311 15.7924 0 12.4999 0C5.59683 0 0 5.59683 0 12.4999C0 19.403 5.59683 24.9998 12.4999 24.9998C19.403 24.9998 24.9998 19.403 24.9998 12.4999C24.9998 11.6618 24.9135 10.8437 24.7567 10.0518Z" fill="#FFC107"/>
<path id="Vector_2" d="M1.44141 6.68182L5.54825 9.69367C6.65949 6.94244 9.35072 4.99996 12.5001 4.99996C14.4119 4.99996 16.1513 5.7212 17.4756 6.89932L21.0112 3.36372C18.7788 1.28311 15.7925 0 12.5001 0C7.69885 0 3.53514 2.7106 1.44141 6.68182Z" fill="#FF3D00"/>
<path id="Vector_3" d="M12.5006 25.0018C15.7293 25.0018 18.663 23.7662 20.8811 21.7568L17.0124 18.4831C15.7574 19.4337 14.1975 20.0019 12.5006 20.0019C9.24937 20.0019 6.48877 17.9287 5.44877 15.0356L1.37256 18.1762C3.44129 22.2243 7.64251 25.0018 12.5006 25.0018Z" fill="#4CAF50"/>
<path id="Vector_4" d="M24.7568 10.0511H23.7499V9.99927H12.5V14.9992H19.5643C19.0693 16.3973 18.17 17.603 17.01 18.4811C17.0106 18.4804 17.0112 18.4804 17.0118 18.4798L20.8806 21.7535C20.6068 22.0023 24.9999 18.7492 24.9999 12.4992C24.9999 11.6611 24.9136 10.843 24.7568 10.0511Z" fill="#1976D2"/>
</g>
</svg>
