<?xml version="1.0" standalone="no"?>
<!DOCTYPE svg PUBLIC "-//W3C//DTD SVG 20010904//EN"
 "http://www.w3.org/TR/2001/REC-SVG-20010904/DTD/svg10.dtd">
<svg version="1.0" xmlns="http://www.w3.org/2000/svg"
 width="225.000000pt" height="225.000000pt" viewBox="0 0 225.000000 225.000000"
 preserveAspectRatio="xMidYMid meet">

<g transform="translate(0.000000,225.000000) scale(0.100000,-0.100000)"
fill="#000000" stroke="none">
<path d="M232 2163 c-23 -8 -62 -34 -86 -59 -80 -79 -76 -30 -76 -979 0 -949
-4 -900 76 -979 79 -80 30 -76 979 -76 938 0 899 -3 973 69 21 20 47 55 57 76
19 39 20 68 23 894 3 966 6 915 -74 995 -80 80 -29 76 -983 75 -727 0 -852 -3
-889 -16z m1363 -238 c153 -40 290 -177 329 -330 23 -87 23 -853 0 -940 -39
-153 -176 -290 -329 -330 -87 -22 -853 -22 -940 0 -153 40 -290 177 -329 330
-23 87 -23 852 -1 940 39 150 176 289 325 329 83 22 860 23 945 1z"/>
<path d="M675 1762 c-99 -34 -174 -117 -195 -215 -8 -35 -10 -182 -8 -452 3
-385 4 -402 24 -446 28 -60 93 -125 153 -153 45 -20 57 -21 476 -21 419 0 431
1 476 21 60 28 125 93 153 153 20 45 21 57 21 476 0 419 -1 431 -21 476 -28
60 -93 125 -153 153 -44 20 -60 21 -461 23 -374 3 -420 1 -465 -15z m963 -118
c25 -26 32 -42 32 -73 0 -78 -83 -137 -152 -108 -53 23 -73 52 -73 107 0 54
20 84 70 106 42 19 85 8 123 -32z m-358 -113 c109 -41 208 -140 252 -251 31
-78 31 -232 0 -310 -44 -110 -142 -208 -252 -252 -78 -31 -232 -31 -310 0
-341 135 -376 600 -59 785 102 60 255 72 369 28z"/>
<path d="M1026 1380 c-100 -39 -176 -149 -176 -255 0 -107 76 -217 178 -255
179 -68 372 67 372 261 0 61 -35 140 -83 187 -79 77 -191 101 -291 62z"/>
</g>
</svg>
