<svg xmlns="http://www.w3.org/2000/svg" width="26" height="26" viewBox="0 0 26 26" fill="none">
    <rect x="1.96802" y="1.62891" width="21.8902" height="22.409" rx="6" fill="url(#paint0_radial_1_138)"/>
    <rect x="1.96802" y="1.62891" width="21.8902" height="22.409" rx="6" fill="url(#paint1_radial_1_138)"/>
    <rect x="1.96802" y="1.62891" width="21.8902" height="22.409" rx="6" fill="url(#paint2_radial_1_138)"/>
    <path d="M18.3856 8.43166C18.3856 9.09466 17.8606 9.63214 17.213 9.63214C16.5653 9.63214 16.0403 9.09466 16.0403 8.43166C16.0403 7.76865 16.5653 7.23117 17.213 7.23117C17.8606 7.23117 18.3856 7.76865 18.3856 8.43166Z" fill="white"/>
    <path fill-rule="evenodd" clip-rule="evenodd" d="M12.9131 16.835C15.072 16.835 16.8221 15.0435 16.8221 12.8334C16.8221 10.6234 15.072 8.83182 12.9131 8.83182C10.7542 8.83182 9.00414 10.6234 9.00414 12.8334C9.00414 15.0435 10.7542 16.835 12.9131 16.835ZM12.9131 15.2344C14.2084 15.2344 15.2585 14.1595 15.2585 12.8334C15.2585 11.5074 14.2084 10.4325 12.9131 10.4325C11.6178 10.4325 10.5677 11.5074 10.5677 12.8334C10.5677 14.1595 11.6178 15.2344 12.9131 15.2344Z" fill="white"/>
    <path fill-rule="evenodd" clip-rule="evenodd" d="M5.09518 12.5133C5.09518 9.82397 5.09518 8.4793 5.60645 7.45211C6.05616 6.54856 6.77376 5.81396 7.65638 5.35358C8.65979 4.8302 9.97332 4.8302 12.6004 4.8302H13.2258C15.8529 4.8302 17.1664 4.8302 18.1698 5.35358C19.0525 5.81396 19.77 6.54856 20.2198 7.45211C20.731 8.4793 20.731 9.82397 20.731 12.5133V13.1536C20.731 15.8429 20.731 17.1876 20.2198 18.2148C19.77 19.1183 19.0525 19.8529 18.1698 20.3133C17.1664 20.8367 15.8529 20.8367 13.2258 20.8367H12.6004C9.97332 20.8367 8.65979 20.8367 7.65638 20.3133C6.77376 19.8529 6.05616 19.1183 5.60645 18.2148C5.09518 17.1876 5.09518 15.8429 5.09518 13.1536V12.5133ZM12.6004 6.43085H13.2258C14.5652 6.43085 15.4756 6.43209 16.1794 6.49095C16.8649 6.54829 17.2154 6.65221 17.46 6.77977C18.0484 7.08669 18.5268 7.57642 18.8266 8.17878C18.9512 8.42912 19.0527 8.78799 19.1087 9.48974C19.1662 10.2102 19.1674 11.1422 19.1674 12.5133V13.1536C19.1674 14.5246 19.1662 15.4567 19.1087 16.1771C19.0527 16.8789 18.9512 17.2377 18.8266 17.4881C18.5268 18.0904 18.0484 18.5802 17.46 18.8871C17.2154 19.0147 16.8649 19.1186 16.1794 19.1759C15.4756 19.2348 14.5652 19.236 13.2258 19.236H12.6004C11.2611 19.236 10.3506 19.2348 9.64684 19.1759C8.96134 19.1186 8.61078 19.0147 8.36623 18.8871C7.77782 18.5802 7.29942 18.0904 6.99961 17.4881C6.87501 17.2377 6.77349 16.8789 6.71748 16.1771C6.65998 15.4567 6.65877 14.5246 6.65877 13.1536V12.5133C6.65877 11.1422 6.65998 10.2102 6.71748 9.48974C6.77349 8.78799 6.87501 8.42912 6.99961 8.17878C7.29942 7.57642 7.77782 7.08669 8.36623 6.77977C8.61078 6.65221 8.96134 6.54829 9.64684 6.49095C10.3506 6.43209 11.2611 6.43085 12.6004 6.43085Z" fill="white"/>
    <defs>
      <radialGradient id="paint0_radial_1_138" cx="0" cy="0" r="1" gradientUnits="userSpaceOnUse" gradientTransform="translate(9.78594 18.4357) rotate(-56.0008) scale(20.2725 20.1001)">
        <stop stop-color="#B13589"/>
        <stop offset="0.79309" stop-color="#C62F94"/>
        <stop offset="1" stop-color="#8A3AC8"/>
      </radialGradient>
      <radialGradient id="paint1_radial_1_138" cx="0" cy="0" r="1" gradientUnits="userSpaceOnUse" gradientTransform="translate(9.00415 24.8383) rotate(-65.6445) scale(18.0094 17.7359)">
        <stop stop-color="#E0E8B7"/>
        <stop offset="0.444662" stop-color="#FB8A2E"/>
        <stop offset="0.71474" stop-color="#E2425C"/>
        <stop offset="1" stop-color="#E2425C" stop-opacity="0"/>
      </radialGradient>
      <radialGradient id="paint2_radial_1_138" cx="0" cy="0" r="1" gradientUnits="userSpaceOnUse" gradientTransform="translate(0.79533 2.42923) rotate(-8.32015) scale(30.4192 6.65418)">
        <stop offset="0.156701" stop-color="#406ADC"/>
        <stop offset="0.467799" stop-color="#6A45BE"/>
        <stop offset="1" stop-color="#6A45BE" stop-opacity="0"/>
      </radialGradient>
    </defs>
  </svg>