<svg xmlns="http://www.w3.org/2000/svg" width="155" height="40" viewBox="0 0 155 40" fill="none">
    <circle cx="20" cy="20" r="19.5" stroke="#FFFCFC"/>
    <path d="M21.1182 26.1177V19.627H23.3295L23.6605 16.8543H21.1182V15.084C21.1182 14.2813 21.3246 13.7342 22.3905 13.7342L23.75 13.7335V11.2537C23.5149 11.2199 22.7078 11.1444 21.769 11.1444C19.8088 11.1444 18.4669 12.4365 18.4669 14.8095V16.8543H16.25V19.627H18.4669V26.1176L21.1182 26.1177Z" fill="#FFFCFC"/>
    <circle cx="135" cy="20" r="19.5" stroke="#F9F7F7"/>
    <path d="M138.778 11.1477V11.1444H139.657L139.979 11.2076C140.193 11.2486 140.387 11.3023 140.562 11.3688C140.737 11.4352 140.906 11.5128 141.069 11.6014C141.233 11.69 141.381 11.7804 141.514 11.8723C141.646 11.9632 141.764 12.0595 141.869 12.1615C141.973 12.2645 142.134 12.2911 142.354 12.2412C142.574 12.1914 142.811 12.1221 143.064 12.0335C143.318 11.9449 143.569 11.8452 143.816 11.7344C144.064 11.6236 144.215 11.5532 144.27 11.5233C144.323 11.4923 144.351 11.4757 144.354 11.4735L144.358 11.4685L144.374 11.4602L144.391 11.4518L144.408 11.4435L144.425 11.4352L144.428 11.4302L144.434 11.4269L144.439 11.4236L144.442 11.4186L144.459 11.4136L144.476 11.4103L144.472 11.4352L144.467 11.4602L144.459 11.4851L144.451 11.51L144.442 11.5266L144.434 11.5432L144.425 11.5682C144.42 11.5848 144.414 11.607 144.408 11.6347C144.403 11.6624 144.349 11.7731 144.248 11.967C144.146 12.1609 144.019 12.3576 143.867 12.557C143.715 12.7564 143.579 12.9071 143.458 13.009C143.336 13.112 143.256 13.184 143.216 13.225C143.177 13.2671 143.129 13.3059 143.073 13.3414L142.988 13.3962L142.971 13.4045L142.954 13.4128L142.951 13.4178L142.946 13.4211L142.941 13.4245L142.937 13.4295L142.92 13.4378L142.904 13.4461L142.9 13.4511L142.895 13.4544L142.89 13.4577L142.887 13.4627L142.883 13.4677L142.878 13.471L142.873 13.4743L142.87 13.4793H142.954L143.428 13.3796C143.743 13.3131 144.045 13.2328 144.332 13.1386L144.789 12.9891L144.839 12.9724L144.865 12.9641L144.882 12.9558L144.899 12.9475L144.915 12.9392L144.932 12.9309L144.966 12.9259L145 12.9226V12.9558L144.992 12.9591L144.983 12.9641L144.98 12.9691L144.975 12.9724L144.97 12.9758L144.966 12.9807L144.963 12.9857L144.958 12.9891L144.953 12.9924L144.949 12.9974L144.946 13.0024L144.941 13.0057L144.932 13.0223L144.924 13.0389L144.919 13.0422C144.917 13.0456 144.845 13.1397 144.704 13.3248C144.563 13.5109 144.487 13.605 144.476 13.6073C144.465 13.6106 144.449 13.6272 144.428 13.6571C144.409 13.6881 144.29 13.8117 144.07 14.0277C143.85 14.2438 143.635 14.436 143.424 14.6044C143.212 14.7739 143.105 14.9822 143.103 15.2292C143.1 15.4752 143.087 15.7533 143.064 16.0635C143.042 16.3737 142.999 16.7088 142.937 17.0689C142.875 17.429 142.78 17.8361 142.65 18.2904C142.52 18.7446 142.363 19.1878 142.177 19.6198C141.991 20.0519 141.796 20.4397 141.593 20.7832C141.39 21.1266 141.204 21.4174 141.035 21.6556C140.866 21.8938 140.694 22.1181 140.52 22.3287C140.345 22.5392 140.124 22.7763 139.857 23.0399C139.589 23.3025 139.442 23.4465 139.417 23.472C139.391 23.4964 139.281 23.5873 139.086 23.7446C138.892 23.9029 138.683 24.0614 138.46 24.2198C138.238 24.3771 138.034 24.5084 137.848 24.6137C137.662 24.719 137.438 24.8391 137.175 24.9743C136.914 25.1106 136.631 25.2369 136.327 25.3532C136.022 25.4695 135.701 25.5776 135.363 25.6773C135.025 25.777 134.698 25.8545 134.382 25.9099C134.067 25.9653 133.709 26.0124 133.309 26.0512L132.709 26.1093V26.1177H131.61V26.1093L131.466 26.101C131.37 26.0955 131.291 26.09 131.229 26.0844C131.167 26.0789 130.933 26.0484 130.528 25.993C130.122 25.9376 129.803 25.8822 129.572 25.8268C129.341 25.7714 128.997 25.6662 128.541 25.5111C128.084 25.356 127.694 25.1992 127.369 25.0408C127.046 24.8835 126.843 24.7837 126.761 24.7416C126.679 24.7006 126.588 24.6497 126.487 24.5888L126.335 24.4974L126.331 24.4924L126.326 24.489L126.321 24.4858L126.318 24.4807L126.301 24.4725L126.284 24.4642L126.28 24.4591L126.275 24.4558L126.27 24.4525L126.267 24.4475L126.264 24.4425L126.258 24.4392H126.25V24.4059L126.267 24.4093L126.284 24.4143L126.36 24.4226C126.411 24.4281 126.549 24.4365 126.774 24.4475C127 24.4586 127.239 24.4586 127.493 24.4475C127.746 24.4365 128.006 24.4115 128.27 24.3727C128.535 24.334 128.848 24.2674 129.209 24.1733C129.569 24.0792 129.901 23.9672 130.203 23.8376C130.504 23.7069 130.718 23.6094 130.845 23.5452C130.972 23.482 131.164 23.3646 131.424 23.1928L131.812 22.9352L131.816 22.9302L131.821 22.927L131.826 22.9236L131.829 22.9186L131.833 22.9136L131.838 22.9103L131.843 22.9069L131.846 22.902L131.863 22.897L131.88 22.8936L131.883 22.8771L131.889 22.8604L131.894 22.8571L131.897 22.8521L131.762 22.8439C131.672 22.8383 131.584 22.8327 131.5 22.8272C131.415 22.8217 131.283 22.7968 131.102 22.7524C130.922 22.7081 130.728 22.6416 130.519 22.553C130.311 22.4644 130.108 22.3591 129.91 22.2373C129.713 22.1154 129.571 22.014 129.483 21.9331C129.396 21.8534 129.283 21.7403 129.145 21.5942C129.007 21.4468 128.888 21.2955 128.786 21.1405C128.685 20.9853 128.588 20.8064 128.495 20.6037L128.355 20.3012L128.346 20.2762L128.338 20.2513L128.333 20.2348L128.33 20.2181L128.355 20.2214L128.38 20.2264L128.566 20.2513C128.69 20.268 128.885 20.2735 129.15 20.268C129.414 20.2625 129.598 20.2513 129.699 20.2348C129.8 20.2181 129.862 20.207 129.885 20.2015L129.919 20.1932L129.961 20.1849L130.003 20.1766L130.007 20.1716L130.012 20.1682L130.017 20.165L130.02 20.1599L129.986 20.1517L129.953 20.1433L129.919 20.135L129.885 20.1267L129.851 20.1184C129.829 20.1128 129.789 20.1018 129.733 20.0851C129.677 20.0686 129.524 20.0076 129.276 19.9024C129.028 19.7971 128.831 19.6946 128.685 19.5949C128.538 19.4949 128.398 19.3855 128.265 19.2675C128.133 19.1479 127.989 18.9939 127.831 18.8056C127.673 18.6172 127.532 18.3984 127.408 18.1491C127.284 17.8998 127.191 17.6616 127.129 17.4345C127.067 17.2087 127.027 16.9779 127.007 16.7448L126.977 16.3959L126.994 16.3992L127.011 16.4042L127.028 16.4125L127.045 16.4208L127.062 16.4291L127.078 16.4374L127.341 16.5537C127.515 16.6313 127.732 16.6978 127.991 16.7531C128.251 16.8085 128.406 16.839 128.456 16.8445L128.532 16.8529H128.685L128.681 16.8479L128.676 16.8445L128.671 16.8413L128.668 16.8362L128.664 16.8313L128.659 16.828L128.654 16.8246L128.651 16.8196L128.634 16.8113L128.617 16.803L128.614 16.798L128.609 16.7947L128.603 16.7914L128.6 16.7864L128.583 16.7781L128.566 16.7698L128.563 16.7648C128.56 16.7626 128.511 16.7271 128.417 16.6584C128.325 16.5886 128.228 16.4983 128.127 16.3875C128.025 16.2767 127.924 16.1604 127.822 16.0386C127.721 15.9164 127.63 15.7857 127.552 15.648C127.473 15.5095 127.39 15.3334 127.302 15.1196C127.215 14.9068 127.149 14.6925 127.104 14.4764C127.059 14.2604 127.033 14.0471 127.028 13.8366C127.022 13.6261 127.028 13.4461 127.045 13.2965C127.062 13.1469 127.095 12.978 127.146 12.7896C127.197 12.6013 127.27 12.4019 127.366 12.1914L127.51 11.8756L127.518 11.8507L127.526 11.8258L127.532 11.8224L127.535 11.8175L127.538 11.8125L127.543 11.8091L127.548 11.8125L127.552 11.8175L127.555 11.8224L127.56 11.8258L127.565 11.8291L127.569 11.8341L127.572 11.8391L127.577 11.8424L127.586 11.859L127.594 11.8756L127.599 11.879L127.603 11.8839L127.831 12.1332C127.983 12.2994 128.163 12.485 128.372 12.6899C128.58 12.8949 128.696 13.0012 128.718 13.009C128.741 13.0179 128.769 13.0433 128.803 13.0854C128.837 13.1264 128.95 13.2245 129.141 13.3796C129.333 13.5347 129.584 13.7147 129.893 13.9197C130.203 14.1246 130.547 14.3269 130.925 14.5263C131.302 14.7257 131.708 14.9057 132.142 15.0664C132.576 15.227 132.88 15.3323 133.055 15.3821C133.23 15.432 133.529 15.4957 133.951 15.5732C134.374 15.6508 134.692 15.7007 134.906 15.7228C135.121 15.745 135.267 15.7577 135.346 15.761L135.464 15.7644L135.461 15.7394L135.456 15.7145L135.422 15.5068C135.4 15.3683 135.388 15.1744 135.388 14.9251C135.388 14.6758 135.408 14.446 135.447 14.2355C135.487 14.0249 135.546 13.8117 135.625 13.5956C135.704 13.3796 135.781 13.2062 135.857 13.0755C135.933 12.9459 136.034 12.798 136.158 12.6318C136.282 12.4656 136.442 12.2939 136.639 12.1166C136.837 11.9393 137.062 11.7814 137.316 11.643C137.569 11.5045 137.803 11.3992 138.017 11.3272C138.232 11.2552 138.412 11.2081 138.558 11.186C138.705 11.1638 138.778 11.1511 138.778 11.1477Z" fill="#F9F7F7"/>
    <circle cx="77.5" cy="20" r="19.5" stroke="#F9F7F7"/>
    <path fill-rule="evenodd" clip-rule="evenodd" d="M72.5875 11.5375C73.064 11.3524 73.6096 11.226 74.4081 11.1897C75.2082 11.1529 75.4641 11.1444 77.5009 11.1444C79.5377 11.1444 79.7934 11.1535 80.5931 11.1897C81.391 11.2254 81.9362 11.3524 82.4137 11.5375C82.9062 11.7286 83.3249 11.9844 83.7417 12.401C84.1585 12.8177 84.4148 13.235 84.6068 13.7272C84.7922 14.2028 84.9188 14.7474 84.9552 15.5445C84.9915 16.3427 85 16.5979 85 18.631C85 20.6642 84.9915 20.9188 84.9552 21.7176C84.9194 22.5146 84.7922 23.059 84.6068 23.5349C84.4148 24.0271 84.1592 24.4451 83.7417 24.8611C83.3242 25.2771 82.9062 25.533 82.4131 25.7246C81.9362 25.9096 81.391 26.0361 80.5925 26.0723C79.7928 26.1092 79.5372 26.1177 77.5003 26.1177C75.4635 26.1177 75.2082 26.1086 74.4081 26.0723C73.6096 26.0361 73.0649 25.9096 72.5875 25.7246C72.0941 25.533 71.6763 25.2769 71.2589 24.8611C70.8415 24.4452 70.5853 24.0271 70.3938 23.5349C70.2084 23.059 70.0818 22.5147 70.0454 21.7176C70.0085 20.9194 70 20.6642 70 18.631C70 16.5979 70.0085 16.3427 70.0454 15.5445C70.0818 14.7475 70.2084 14.2031 70.3938 13.7272C70.5853 13.2347 70.8415 12.817 71.2589 12.401C71.6764 11.985 72.0941 11.7286 72.5875 11.5375ZM77.4996 16.1355C76.1191 16.1355 75 17.2528 75 18.631C75 20.0092 76.1191 21.1266 77.4996 21.1266C78.8804 21.1266 80 20.009 80 18.631C80 17.2531 78.8804 16.1355 77.4996 16.1355ZM73.3333 18.631C73.3333 16.3343 75.1982 14.4718 77.4996 14.4718C79.8007 14.4718 81.6667 16.3341 81.6667 18.631C81.6667 20.928 79.8007 22.7903 77.4996 22.7903C75.1982 22.7903 73.3333 20.9278 73.3333 18.631ZM82.5 14.4718C82.9602 14.4718 83.3333 14.0994 83.3333 13.64C83.3333 13.1805 82.9602 12.8081 82.5 12.8081C82.0398 12.8081 81.6667 13.1805 81.6667 13.64C81.6667 14.0994 82.0398 14.4718 82.5 14.4718Z" fill="#F9F7F7"/>
  </svg>