<?xml version="1.0" standalone="no"?>
<!DOCTYPE svg PUBLIC "-//W3C//DTD SVG 20010904//EN"
 "http://www.w3.org/TR/2001/REC-SVG-20010904/DTD/svg10.dtd">
<svg version="1.0" xmlns="http://www.w3.org/2000/svg"
 width="225.000000pt" height="225.000000pt" viewBox="0 0 225.000000 225.000000"
 preserveAspectRatio="xMidYMid meet">

<g transform="translate(0.000000,225.000000) scale(0.100000,-0.100000)"
fill="#000000" stroke="none">
<path d="M948 2234 c-170 -26 -355 -103 -490 -205 -132 -99 -268 -261 -342
-407 -67 -132 -116 -343 -116 -497 0 -226 85 -485 216 -662 418 -560 1222
-620 1707 -126 173 175 276 381 312 620 19 124 19 212 0 336 -93 616 -669
1038 -1287 941z m504 -709 c18 -8 44 -23 58 -31 24 -16 29 -15 88 9 34 13 62
23 62 20 0 -12 -26 -52 -54 -81 l-31 -33 30 7 c17 4 41 11 54 16 41 15 35 1
-23 -57 -54 -54 -56 -59 -56 -108 0 -75 -26 -171 -68 -257 -46 -95 -168 -221
-259 -268 -177 -92 -414 -95 -585 -5 l-53 27 80 7 c82 7 172 35 213 67 l24 18
-44 13 c-53 16 -103 53 -129 95 -10 17 -19 34 -19 38 0 4 19 8 43 10 l42 3
-35 16 c-68 31 -130 114 -130 174 0 24 3 26 23 21 77 -21 75 -22 40 15 -41 43
-63 97 -63 152 0 42 16 107 27 107 3 0 34 -27 69 -59 92 -87 254 -161 352
-161 32 0 32 1 32 48 1 63 28 120 80 164 67 58 153 70 232 33z"/>
</g>
</svg>
